<svg xmlns="http://www.w3.org/2000/svg" viewBox="0 0 200 200" fill="none">
  <!-- Neck & shoulders -->
  <path d="M72 158 C60 170 44 178 36 190 Q80 196 100 196 Q120 196 164 190 C156 178 140 170 128 158" stroke="#222" stroke-width="1.5" stroke-linecap="round"/>
  <!-- Neck -->
  <path d="M82 148 C80 154 78 158 72 158" stroke="#222" stroke-width="1.5" stroke-linecap="round"/>
  <path d="M118 148 C120 154 122 158 128 158" stroke="#222" stroke-width="1.5" stroke-linecap="round"/>

  <!-- Face outline -->
  <path d="M68 90 C64 72 66 52 78 40 C88 28 100 24 112 26 C126 28 138 38 142 52 C148 68 144 88 138 102 C132 116 124 128 118 138 C112 146 108 150 100 152 C92 150 88 146 82 138 C76 128 68 112 68 90 Z" stroke="#222" stroke-width="1.5" stroke-linecap="round" stroke-linejoin="round"/>

  <!-- Hair — top volume -->
  <path d="M72 72 C66 58 70 38 82 28 C90 20 100 16 112 18 C126 20 138 30 142 44 C146 56 142 70 138 80" stroke="#222" stroke-width="1.5" stroke-linecap="round"/>
  <!-- Hair side flow left -->
  <path d="M72 72 C62 78 56 90 54 104 C52 116 56 132 62 144" stroke="#222" stroke-width="1.4" stroke-linecap="round"/>
  <!-- Hair side flow right -->
  <path d="M138 80 C148 88 152 104 150 118 C148 130 142 142 138 152" stroke="#222" stroke-width="1.4" stroke-linecap="round"/>
  <!-- Hair texture strokes -->
  <path d="M80 26 C76 34 74 44 74 56" stroke="#222" stroke-width="1" stroke-linecap="round" opacity="0.5"/>
  <path d="M100 18 C100 28 100 40 100 52" stroke="#222" stroke-width="1" stroke-linecap="round" opacity="0.4"/>
  <path d="M118 20 C122 30 124 42 122 54" stroke="#222" stroke-width="1" stroke-linecap="round" opacity="0.5"/>

  <!-- Left eyebrow -->
  <path d="M78 82 C82 78 88 77 94 79" stroke="#222" stroke-width="1.4" stroke-linecap="round"/>
  <!-- Right eyebrow -->
  <path d="M106 79 C112 77 118 78 122 82" stroke="#222" stroke-width="1.4" stroke-linecap="round"/>

  <!-- Left eye -->
  <path d="M78 90 C82 86 88 86 92 90 C88 94 82 94 78 90 Z" stroke="#222" stroke-width="1.3" stroke-linejoin="round"/>
  <circle cx="85" cy="90" r="2" fill="#222"/>
  <!-- Right eye -->
  <path d="M108 90 C112 86 118 86 122 90 C118 94 112 94 108 90 Z" stroke="#222" stroke-width="1.3" stroke-linejoin="round"/>
  <circle cx="115" cy="90" r="2" fill="#222"/>

  <!-- Nose -->
  <path d="M100 96 C98 104 94 110 96 114 C99 116 101 116 104 114 C106 110 102 104 100 96" stroke="#222" stroke-width="1.2" stroke-linecap="round" stroke-linejoin="round"/>

  <!-- Mouth -->
  <path d="M90 126 C94 122 98 121 100 121 C102 121 106 122 110 126" stroke="#222" stroke-width="1.4" stroke-linecap="round"/>
  <path d="M90 126 C94 130 98 132 100 132 C102 132 106 130 110 126" stroke="#222" stroke-width="1.3" stroke-linecap="round"/>

  <!-- Subtle cheek line -->
  <path d="M72 100 C70 108 72 116 76 120" stroke="#222" stroke-width="0.8" stroke-linecap="round" opacity="0.35"/>
  <path d="M128 100 C130 108 128 116 124 120" stroke="#222" stroke-width="0.8" stroke-linecap="round" opacity="0.35"/>
</svg>
